<svg xmlns="http://www.w3.org/2000/svg" xmlns:xlink="http://www.w3.org/1999/xlink" viewBox="0 0 75 58"><defs><style>.cls-1{fill:url(#linear-gradient);}</style><linearGradient id="linear-gradient" x1="37.5" y1="768" x2="37.5" y2="710" gradientTransform="matrix(1, 0, 0, -1, 0, 768)" gradientUnits="userSpaceOnUse"><stop offset="0" stop-color="#eaf1f7"/><stop offset="0.02" stop-color="#f2f2f2"/><stop offset="1" stop-color="#ccd5de"/></linearGradient></defs><g id="Layer_2" data-name="Layer 2"><g id="Layer_1-2" data-name="Layer 1"><path class="cls-1" d="M63,25.2a14,14,0,0,0,.75-4.49c0-6.87-5-12.42-11.25-12.42a10.34,10.34,0,0,0-6.25,2.1C43,4.18,36.94,0,30,0,19.62,0,11.25,9.25,11.25,20.71c0,.35,0,.69,0,1C4.72,24.3,0,31.21,0,39.36,0,49.65,7.56,58,16.88,58H60c8.28,0,15-7.42,15-16.57,0-8-5.16-14.71-12-16.23h0"/></g></g></svg>